<svg width="48" height="48" viewBox="0 0 48 48" fill="none" xmlns="http://www.w3.org/2000/svg">
<path fill="black" d="M35.6 17.7c-1.9.1-3.5 1.1-4.4 2.7-1 .9-1.8 2.3-1.6 3.7 1.7.1 3.3-.9 4.2-2.4 1-.8 1.7-2.2 1.7-3.6-.1-.1-.1-.2-.2-.4zm-3.3-2c.8-1 1.3-2.3 1.2-3.6-1.2.1-2.5.7-3.3 1.7-.7.9-1.3 2.3-1.1 3.6 1.2 0 2.5-.7 3.2-1.7zm-1.6 8.2c-2.3 0-3.3 1.6-5 1.6-1.7 0-3.1-1.5-5.1-1.5-2.6 0-5 1.5-6.4 3.8-2.2 3.4-1.8 8.3.5 11.1 1.5 1.7 3.4 2.6 5.3 2.6 1.7 0 2.8-1.1 5.1-1.1 2.3 0 3.3 1.1 5.1 1.1 1.9 0 3.7-.9 5.1-2.6.6-.8 1.1-1.7 1.4-2.6-2.6-1-3.8-3.7-3.9-6.3-.1-2 .7-3.9 2.2-5.2-.8-1-2.1-1.8-3.7-2z"/>
</svg>
