<svg xmlns="http://www.w3.org/2000/svg" width="24" height="24" fill="white" viewBox="0 0 24 24">
  <path d="M2.808 1.393l19.799 19.799-1.414 1.414-3.434-3.435c-1.786.963-3.729
  1.354-5.759 1.062-6.074-.894-9-7.233-9-7.233 1.005-2.078 2.49-3.875
  4.33-5.214l-4.522-4.523 1.414-1.414zm7.5 7.5l-1.414-1.414c.303-.132.622-.231.955-.29
  2.761-.504 5.239 1.311 5.743 4.072.059.333.094.663.103.991l-1.414-1.415c-.088-.945-.55-1.85-1.302-2.602-.752-.752-1.657-1.214-2.602-1.302l-1.069-.04zm5.759
  5.759l-1.414-1.414c-.215.386-.5.739-.854 1.046-.752.752-1.657 1.214-2.602 1.302-.946.088-1.85-.55-2.602-1.302-.752-.752-1.214-1.657-1.302-2.602-.059-.333-.094-.663-.103-.991l-1.414-1.415c-.088.945-.55 1.85-1.302 2.602-.752.752-1.657 1.214-2.602 1.302-.946-.088-1.85-.55-2.602-1.302-.752-.752-1.214-1.657-1.302-2.602-.894-6.074
  7.233-9 7.233-9 1.086.542 2.067 1.24 2.912 2.085l-1.415 1.414c-.842-.64-1.786-1.157-2.827-1.554-6.074.894-9 7.233-9 7.233 1.005 2.078 2.49
  3.875 4.33 5.214l-4.522 4.523 1.414 1.414 3.434-3.435c1.786-.963 3.729-1.354 5.759-1.062 6.074.894 9 7.233 9 7.233-1.005 2.078-2.49 3.875-4.33 5.214l4.522 4.523-1.414 1.414z"/>
</svg>
