<svg xmlns="http://www.w3.org/2000/svg" width="48" height="48">
<path fill="#EA4335" d="M24 9.5c3.7 0 6.2 1.6 7.7 2.9l5.6-5.5C33.6 3.4 29.1 1 24 1 14.6 1 6.6 6.9 3 15.3l6.9 5.4C12 13.1 17.5 9.5 24 9.5z"/>
<path fill="#34A853" d="M46.1 24.5c0-1.6-.1-2.7-.4-3.9H24v7.4h12.6c-.3 2.1-1.8 5.3-5.3 7.4l6.9 5.3c4.3-4 6.9-9.8 6.9-16.2z"/>
<path fill="#4A90E2" d="M10 28.6c-.5-1.5-.8-3.2-.8-4.6s.3-3.1.8-4.6l-6.9-5.4C1.8 17.4 1 20.6 1 24s.8 6.6 2.1 9.9l6.9-5.3z"/>
<path fill="#FBBC05" d="M24 47c5.1 0 9.6-1.7 12.8-4.6l-6.9-5.4c-1.9 1.3-4.4 2.2-7 2.2-6.5 0-12-4.6-14-10.8l-6.9 5.4C6.6 41.1 14.6 47 24 47z"/>
</svg>
