<svg xmlns="http://www.w3.org/2000/svg" viewBox="0 0 640 512">
  <path fill="#4285F4" d="M386.3 228.6c1.9 10.2 2.9 20.8 2.9 31.7 0 109.7-73.6 187.5-183.9 187.5C92.7 447.8 0 355.1 0 243.6 0 132.1 92.7 39.4 205.3 39.4c55.7 0 102.5 22.6 138.5 59.8l-56.1 53.9c-15.2-14.7-42-31.9-82.4-31.9-70.7 0-128.3 58.6-128.3 122.4 0 63.8 57.6 122.4 128.3 122.4 82 0 113-58.9 118.1-90.7H205.3v-75.7h181z"/>
  <path fill="#EA4335" d="M640 260.3c0-21.4-1.7-42.1-4.8-62.3H454.7v118.1h103.6c-4.5 24.1-17.8 44.5-37.9 58.2v48.2h61.3c35.9-33.1 58.3-81.9 58.3-141.2z"/>
  <path fill="#FBBC05" d="M454.7 198h-98.3v118.1h98.3z"/>
  <path fill="#34A853" d="M356.4 374.3c27.5 18.5 62.7 29.3 98.3 29.3 55.9 0 102.8-18.4 137-50.1l-61.3-48.2c-17 11.5-38.8 18.3-75.7 18.3-58.2 0-107.6-39.3-125.2-92.2h-60.7v49.3c34.1 67.7 103.9 113.6 187.6 113.6z"/>
</svg>
